<?xml version="1.0" encoding="UTF-8" standalone="no"?>
<!DOCTYPE svg PUBLIC "-//W3C//DTD SVG 1.1//EN" "http://www.w3.org/Graphics/SVG/1.1/DTD/svg11.dtd">
<svg xmlns="http://www.w3.org/2000/svg" version="1.1" viewBox="0 0 500 500">
<path d="M 429.63,81.38 Q 484.40,139.75 495.25,219.50 Q 495.69,222.77 496.01,227.16 Q 496.25,230.50 496.25,234.84 Q 496.25,249.69 496.25,264.54 Q 496.25,274.82 495.12,282.90 Q 482.91,370.19 419.33,430.20 Q 411.89,437.23 404.23,443.31 Q 363.86,475.37 313.00,488.75 Q 298.08,492.67 283.70,494.49 Q 275.57,495.52 263.75,495.54 Q 249.72,495.56 235.69,495.43 Q 224.43,495.32 215.76,494.07 Q 174.11,488.07 138.19,469.31 Q 78.95,438.39 43.81,383.44 Q 10.04,330.63 5.50,269.50 Q 4.14,251.16 5.75,227.00 Q 6.68,213.13 11.05,194.70 Q 13.46,184.53 16.40,175.43 Q 36.87,112.17 85.98,67.58 Q 93.38,60.86 101.34,54.78 Q 153.45,15.01 218.00,6.25 Q 237.13,3.65 261.50,4.51 Q 303.02,5.98 341.56,21.35 Q 392.29,41.59 429.63,81.38 ZM 323.33,92.04 Q 318.53,98.86 318.69,106.90 Q 318.77,110.98 320.45,113.80 Q 322.35,117.00 325.81,118.94 Q 330.20,121.39 334.84,123.30 Q 334.98,123.35 339.85,125.71 Q 343.51,127.48 347.00,127.00 Q 355.51,125.82 358.61,116.95 Q 362.08,107.02 361.22,96.16 Q 361.00,93.29 358.25,92.45 Q 354.82,91.39 350.49,89.27 Q 345.29,86.73 339.50,87.20 Q 339.00,87.24 338.55,87.05 Q 334.37,85.21 331.75,85.75 Q 327.09,86.71 323.33,92.04 ZM 177.62,134.81 Q 176.21,130.37 175.94,124.25 Q 175.60,116.48 175.73,108.70 Q 175.73,108.65 175.86,106.81 Q 176.13,103.03 173.06,101.19 Q 167.80,98.04 161.33,96.98 Q 158.59,96.53 154.31,97.18 Q 149.39,97.92 144.41,98.02 Q 138.63,98.13 137.20,98.81 Q 133.46,100.59 133.50,106.25 Q 133.67,130.15 134.16,138.94 A 0.63,0.63 80.2 0 1 133.71,139.58 Q 129.95,140.69 125.25,140.50 Q 112.20,139.98 97.57,141.47 Q 94.23,141.81 92.64,142.80 Q 90.11,144.37 89.54,147.26 Q 89.50,147.47 89.38,154.26 Q 89.23,162.87 90.46,171.39 Q 90.47,171.42 91.19,175.09 Q 91.73,177.81 92.00,182.00 Q 92.22,185.38 94.81,186.99 Q 96.42,188.00 99.91,188.00 Q 111.33,188.00 122.75,188.02 Q 127.06,188.03 131.86,188.77 A 1.00,1.00 89.6 0 1 132.69,189.59 Q 134.56,200.47 135.59,211.49 Q 136.30,219.17 137.79,226.73 Q 138.35,229.61 139.44,230.98 Q 141.04,233.00 143.55,233.47 Q 144.04,233.57 149.95,233.57 Q 153.21,233.58 156.46,233.29 Q 161.24,232.87 162.93,232.80 Q 174.54,232.30 177.06,232.06 Q 179.98,231.79 181.48,229.63 Q 182.51,228.17 182.53,225.14 Q 182.65,209.88 180.70,194.72 Q 180.18,190.63 179.94,185.20 A 0.96,0.95 82.8 0 1 180.69,184.23 Q 185.08,183.27 188.40,182.53 Q 199.12,180.14 210.02,180.70 Q 217.96,181.10 217.97,181.10 Q 223.39,180.28 223.06,173.19 Q 222.40,158.53 218.25,141.75 Q 217.24,137.67 214.37,135.97 Q 213.13,135.24 210.98,135.29 Q 209.19,135.33 207.41,135.39 Q 205.16,135.47 202.12,135.94 Q 192.19,137.44 180.86,137.22 Q 178.38,137.17 177.62,134.81 ZM 265.77,143.53 Q 264.87,144.79 264.61,146.32 Q 262.87,156.69 264.26,167.77 Q 264.60,170.46 265.83,171.71 Q 267.49,173.40 270.08,173.51 Q 271.79,173.58 271.92,173.60 Q 284.68,174.90 297.50,174.70 Q 319.06,174.38 340.56,175.96 Q 363.62,177.66 386.75,177.26 Q 391.54,177.18 395.31,176.31 Q 401.82,174.82 401.65,168.47 Q 401.57,165.18 401.57,165.02 Q 401.87,156.28 400.75,148.50 Q 400.33,145.60 398.15,144.18 Q 396.73,143.26 393.63,143.23 Q 366.18,142.99 338.74,141.92 Q 325.11,141.39 318.74,141.27 Q 293.87,140.80 269.01,141.46 Q 267.20,141.51 265.77,143.53 ZM 325.06,193.56 Q 323.77,194.77 322.83,196.32 Q 319.07,202.57 319.06,209.56 Q 319.05,215.18 321.42,219.07 Q 324.23,223.65 329.80,225.29 Q 333.42,226.35 333.64,226.44 Q 335.50,227.21 337.18,228.32 Q 347.09,234.88 354.30,229.17 Q 358.86,225.57 360.94,217.91 Q 362.71,211.42 362.34,204.51 Q 362.33,204.45 362.36,201.98 Q 362.39,199.56 360.86,198.15 Q 360.75,198.05 356.82,195.61 Q 350.45,191.65 342.94,190.64 Q 342.89,190.63 340.54,190.54 Q 338.83,190.47 336.50,189.75 Q 331.72,188.27 327.77,191.27 Q 326.34,192.36 325.06,193.56 ZM 332.76,319.68 Q 332.61,318.19 331.27,317.15 Q 329.98,316.16 329.94,316.12 Q 325.93,312.47 322.11,308.62 Q 321.29,307.79 320.69,306.66 Q 319.85,305.08 319.44,304.56 Q 313.89,297.65 307.51,291.52 Q 305.10,289.19 302.72,288.74 Q 299.65,288.16 295.97,288.88 A 2.09,2.05 -75.5 0 0 294.75,289.61 Q 292.01,293.01 288.23,295.02 Q 285.24,296.60 282.38,298.43 Q 278.53,300.89 277.36,302.87 Q 275.65,305.77 276.84,309.24 Q 277.31,310.59 279.13,312.98 Q 280.76,315.10 281.56,316.69 Q 286.91,327.22 293.31,333.44 Q 299.28,339.23 304.94,345.31 A 1.94,1.93 -45.3 0 1 304.95,347.93 Q 301.23,352.00 296.85,355.32 Q 284.15,364.95 270.44,373.07 Q 267.37,374.89 266.57,376.04 Q 264.91,378.42 266.50,381.50 Q 272.71,393.55 283.31,404.19 Q 285.23,406.11 287.23,406.69 Q 288.90,407.18 291.50,406.07 Q 313.35,396.69 332.29,382.28 Q 334.72,380.43 337.70,378.57 A 1.79,1.78 46.9 0 1 339.70,378.64 Q 347.42,384.25 353.76,391.00 Q 357.20,394.66 361.58,396.98 Q 365.81,399.22 367.08,400.05 Q 369.55,401.66 372.39,403.47 Q 373.23,403.99 373.75,404.83 Q 375.51,407.67 378.32,408.85 Q 381.03,409.99 383.49,410.48 Q 386.66,411.11 389.06,408.81 Q 392.58,405.44 400.19,394.44 Q 402.75,390.73 404.83,385.69 Q 405.65,383.71 405.33,382.21 Q 404.92,380.32 403.56,378.94 Q 391.94,367.10 377.41,356.98 Q 377.32,356.92 375.43,355.70 Q 372.45,353.77 370.14,350.87 A 1.95,1.95 36.7 0 1 369.86,348.95 Q 370.83,346.49 372.69,344.43 Q 384.42,331.55 396.94,319.44 Q 401.31,315.21 398.29,310.66 Q 398.00,310.23 397.97,309.75 Q 397.68,306.21 396.44,304.56 Q 393.02,300.03 385.30,292.01 Q 380.60,287.12 379.33,286.39 Q 375.26,284.05 370.31,286.81 Q 363.40,290.68 356.86,298.12 Q 346.78,309.58 333.59,320.03 Q 332.86,320.61 332.76,319.68 ZM 89.20,360.07 Q 90.44,360.90 91.93,361.04 Q 110.58,362.74 129.75,362.49 Q 146.65,362.27 165.50,363.75 Q 188.14,365.52 212.49,364.52 Q 217.43,364.32 220.19,362.94 Q 223.70,361.18 223.58,357.03 Q 223.53,355.07 223.53,354.96 Q 223.91,340.05 223.00,335.25 Q 221.96,329.79 216.50,329.75 Q 187.84,329.52 168.26,328.58 Q 130.65,326.77 93.00,326.74 Q 89.69,326.74 87.84,328.80 Q 86.56,330.22 86.10,333.56 Q 84.56,344.63 86.41,355.72 Q 86.87,358.51 89.20,360.07 Z"/>
</svg>
